# xmcd
#
# Track frame offsets: 
#        182
#        13207
#        26952
#        39290
#        53707
#        66655
#        80250
#        90382
#        104400
#        118482
#        130090
#        141292
#        149915
#        163315
#        178977
#        189357
#        202025
#        212652
#        225290
#        236817
#        247645
#        258697
#        270152
#        282482
#
# Disc length: 3952 seconds
#
# Revision: 0
# Processed by: cddbd v1.4PL0 Copyright (c) Steve Scherf et al.
# Submitted via: ExactAudioCopy v0.90b3
#
DISCID=6e0f6e18
DTITLE=Charley Pride - Reader's Digest (Charley Pride's Country) - Dis
DTITLE=c 2
DYEAR=1900
DGENRE=Country
TTITLE0=A Place For The Lonesome
TTITLE1=Instant Loneliness
TTITLE2=Let The Chips Fall
TTITLE3=I'm A Lonesome Fugitive
TTITLE4=Give A Lonely Heart A Home
TTITLE5=In The Middle Of Nowhere
TTITLE6=Spell Of The Freight Train
TTITLE7=Detroit City
TTITLE8=Green, Green Grass Of Home
TTITLE9=On The Southbound
TTITLE10=Take Me Home
TTITLE11=Back To The Cowboy Roads
TTITLE12=Louisiana Man
TTITLE13=For The Good Times
TTITLE14=The Last Thing On My Mind
TTITLE15=Lovesick Blues
TTITLE16=Streets Of Baltimore
TTITLE17=Cotton Fields
TTITLE18=The Day The World Stood Still
TTITLE19=The Easy Part's Over
TTITLE20=I Know One
TTITLE21=We Could
TTITLE22=The Snakes Crawl At Night
TTITLE23=What Money Can't Buy
EXTD=
EXTT0=
EXTT1=
EXTT2=
EXTT3=
EXTT4=
EXTT5=
EXTT6=
EXTT7=
EXTT8=
EXTT9=
EXTT10=
EXTT11=
EXTT12=
EXTT13=
EXTT14=
EXTT15=
EXTT16=
EXTT17=
EXTT18=
EXTT19=
EXTT20=
EXTT21=
EXTT22=
EXTT23=
PLAYORDER=
